<?xml version="1.0" encoding="UTF-8" standalone="no"?>
<svg
   xmlns:dc="http://purl.org/dc/elements/1.1/"
   xmlns:cc="http://creativecommons.org/ns#"
   xmlns:rdf="http://www.w3.org/1999/02/22-rdf-syntax-ns#"
   xmlns:svg="http://www.w3.org/2000/svg"
   xmlns="http://www.w3.org/2000/svg"
   xmlns:xlink="http://www.w3.org/1999/xlink"
   xmlns:sodipodi="http://sodipodi.sourceforge.net/DTD/sodipodi-0.dtd"
   xmlns:inkscape="http://www.inkscape.org/namespaces/inkscape"
   sodipodi:docname="rust-logo-gear-only.svg"
   inkscape:version="1.0 (4035a4fb49, 2020-05-01)"
   version="1.1"
   id="svg36360"
   viewBox="0 0 744.09448819 1052.3622047"
   height="297mm"
   width="210mm">
  <defs
     id="defs36362">
    <marker
       refY="0.0"
       refX="0.0"
       style="overflow:visible"
       id="DistanceX"
       orient="auto">
      <path
         style="stroke:#000000; stroke-width:0.5"
         d="M 3,-3 L -3,3 M 0,-5 L  0,5"
         id="path37683" />
    </marker>
    <pattern
       height="8"
       width="8"
       patternUnits="userSpaceOnUse"
       y="0"
       x="0"
       id="Hatch">
      <path
         linecap="square"
         stroke="#000000"
         stroke-width="0.25"
         d="M8 4 l-4,4"
         id="path37686" />
      <path
         linecap="square"
         stroke="#000000"
         stroke-width="0.25"
         d="M6 2 l-4,4"
         id="path37688" />
      <path
         linecap="square"
         stroke="#000000"
         stroke-width="0.25"
         d="M4 0 l-4,4"
         id="path37690" />
    </pattern>
    <symbol
       id="*Model_Space" />
    <symbol
       id="*Paper_Space" />
    <symbol
       id="logo_rust" />
    <symbol
       id="Cathar_cross">
      <path
         style="stroke:#FF0000;fill:none;stroke-linecap: round"
         d="M 257.574171,781.857751 C 261.980709,836.443361 233.986465,901.707194 199.134680,946.972488"
         id="path37696" />
      <path
         style="stroke:#FF0000;fill:none;stroke-linecap: round"
         d="M 199.134680,946.972488 C 232.480984,957.323480 260.273530,972.929509 283.549209,997.185543"
         id="path37698" />
      <path
         style="stroke:#FF0000;fill:none;stroke-linecap: round"
         d="M 283.549209,997.185543 C 308.453924,969.695405 338.207187,955.154523 367.420620,946.249285"
         id="path37700" />
      <path
         style="stroke:#FF0000;fill:none;stroke-linecap: round"
         d="M 367.420620,946.249285 C 328.754721,897.456529 308.206772,832.250693 309.354661,781.534063"
         id="path37702" />
      <path
         style="stroke:#FF0000;fill:none;stroke-linecap: round"
         d="M 257.574171,755.937128 C 261.980709,701.351518 233.986465,636.087685 199.134680,590.822391"
         id="path37704" />
      <path
         style="stroke:#FF0000;fill:none;stroke-linecap: round"
         d="M 199.134680,590.822391 C 232.480984,580.471398 260.273530,564.865370 283.549209,540.609335"
         id="path37706" />
      <path
         style="stroke:#FF0000;fill:none;stroke-linecap: round"
         d="M 283.549209,540.609335 C 308.453924,568.099474 338.207187,582.640356 367.420620,591.545594"
         id="path37708" />
      <path
         style="stroke:#FF0000;fill:none;stroke-linecap: round"
         d="M 367.420620,591.545594 C 328.754721,640.338350 308.206772,705.544186 309.354661,756.260816"
         id="path37710" />
      <path
         style="stroke:#FF0000;fill:none;stroke-linecap: round"
         d="M 296.425049,794.787987 C 351.010658,790.381446 416.274491,818.375698 461.539786,853.227468"
         id="path37712" />
      <path
         style="stroke:#FF0000;fill:none;stroke-linecap: round"
         d="M 461.539786,853.227468 C 471.890778,819.881150 487.496806,792.088611 511.752841,768.812939"
         id="path37714" />
      <path
         style="stroke:#FF0000;fill:none;stroke-linecap: round"
         d="M 511.752841,768.812939 C 484.262702,743.908224 469.721820,714.154961 460.816583,684.941528"
         id="path37716" />
      <path
         style="stroke:#FF0000;fill:none;stroke-linecap: round"
         d="M 460.816583,684.941528 C 412.023827,723.607427 346.817991,744.155376 296.101361,743.007487"
         id="path37718" />
      <path
         style="stroke:#FF0000;fill:none;stroke-linecap: round"
         d="M 270.504397,794.787987 C 215.918787,790.381446 150.654954,818.375698 105.389660,853.227468"
         id="path37720" />
      <path
         style="stroke:#FF0000;fill:none;stroke-linecap: round"
         d="M 105.389660,853.227468 C 95.038668,819.881150 79.432639,792.088611 55.176605,768.812939"
         id="path37722" />
      <path
         style="stroke:#FF0000;fill:none;stroke-linecap: round"
         d="M 55.176605,768.812939 C 82.666743,743.908224 97.207625,714.154961 106.112863,684.941528"
         id="path37724" />
      <path
         style="stroke:#FF0000;fill:none;stroke-linecap: round"
         d="M 106.112863,684.941528 C 154.905619,723.607427 220.111455,744.155376 270.828085,743.007487"
         id="path37726" />
      <path
         style="stroke:#FF0000;fill:none;stroke-linecap: round"
         d="M 283.464553,1010.149785 C 289.103014,1010.149785 294.510540,1012.373469 298.497533,1016.331651"
         id="path37728" />
      <path
         style="stroke:#FF0000;fill:none;stroke-linecap: round"
         d="M 298.497533,1016.331651 C 302.484526,1020.289837 304.724392,1025.658283 304.724388,1031.256000"
         id="path37730" />
      <path
         style="stroke:#FF0000;fill:none;stroke-linecap: round"
         d="M 304.724388,1031.256000 C 304.724381,1042.912626 295.206031,1052.362187 283.464553,1052.362187"
         id="path37732" />
      <path
         style="stroke:#FF0000;fill:none;stroke-linecap: round"
         d="M 283.464553,1052.362187 C 271.723075,1052.362187 262.204728,1042.912626 262.204717,1031.256000"
         id="path37734" />
      <path
         style="stroke:#FF0000;fill:none;stroke-linecap: round"
         d="M 262.204717,1031.256000 C 262.204714,1025.658283 264.444583,1020.289837 268.431576,1016.331654"
         id="path37736" />
      <path
         style="stroke:#FF0000;fill:none;stroke-linecap: round"
         d="M 268.431576,1016.331654 C 272.418566,1012.373469 277.826092,1010.149785 283.464553,1010.149785"
         id="path37738" />
      <path
         style="stroke:#FF0000;fill:none;stroke-linecap: round"
         d="M 162.992119,938.976240 C 168.630580,938.976240 174.038102,941.216113 178.025095,945.203109"
         id="path37740" />
      <path
         style="stroke:#FF0000;fill:none;stroke-linecap: round"
         d="M 178.025095,945.203109 C 182.012088,949.190106 184.251958,954.597632 184.251954,960.236096"
         id="path37742" />
      <path
         style="stroke:#FF0000;fill:none;stroke-linecap: round"
         d="M 184.251954,960.236096 C 184.251947,971.977574 174.733593,981.495921 162.992119,981.495921"
         id="path37744" />
      <path
         style="stroke:#FF0000;fill:none;stroke-linecap: round"
         d="M 162.992119,981.495921 C 151.250641,981.495921 141.732291,971.977574 141.732283,960.236096"
         id="path37746" />
      <path
         style="stroke:#FF0000;fill:none;stroke-linecap: round"
         d="M 141.732283,960.236096 C 141.732280,954.597632 143.972146,949.190106 147.959139,945.203109"
         id="path37748" />
      <path
         style="stroke:#FF0000;fill:none;stroke-linecap: round"
         d="M 147.959139,945.203109 C 151.946132,941.216113 157.353658,938.976240 162.992119,938.976240"
         id="path37750" />
      <path
         style="stroke:#FF0000;fill:none;stroke-linecap: round"
         d="M 403.936994,938.976240 C 409.575455,938.976240 414.982981,941.216113 418.969974,945.203109"
         id="path37752" />
      <path
         style="stroke:#FF0000;fill:none;stroke-linecap: round"
         d="M 418.969974,945.203109 C 422.956967,949.190106 425.196833,954.597632 425.196829,960.236096"
         id="path37754" />
      <path
         style="stroke:#FF0000;fill:none;stroke-linecap: round"
         d="M 425.196829,960.236096 C 425.196822,971.977574 415.678472,981.495921 403.936994,981.495921"
         id="path37756" />
      <path
         style="stroke:#FF0000;fill:none;stroke-linecap: round"
         d="M 403.936994,981.495921 C 392.195516,981.495921 382.677169,971.977574 382.677158,960.236096"
         id="path37758" />
      <path
         style="stroke:#FF0000;fill:none;stroke-linecap: round"
         d="M 382.677158,960.236096 C 382.677155,954.597632 384.917024,949.190106 388.904017,945.203109"
         id="path37760" />
      <path
         style="stroke:#FF0000;fill:none;stroke-linecap: round"
         d="M 388.904017,945.203109 C 392.891007,941.216113 398.298533,938.976240 403.936994,938.976240"
         id="path37762" />
      <path
         style="stroke:#FF0000;fill:none;stroke-linecap: round"
         d="M 283.464553,527.645094 C 289.103014,527.645094 294.510540,525.421410 298.497533,521.463228"
         id="path37764" />
      <path
         style="stroke:#FF0000;fill:none;stroke-linecap: round"
         d="M 298.497533,521.463228 C 302.484526,517.505042 304.724392,512.136595 304.724388,506.538879"
         id="path37766" />
      <path
         style="stroke:#FF0000;fill:none;stroke-linecap: round"
         d="M 304.724388,506.538879 C 304.724381,494.882252 295.206031,485.432692 283.464553,485.432692"
         id="path37768" />
      <path
         style="stroke:#FF0000;fill:none;stroke-linecap: round"
         d="M 283.464553,485.432692 C 271.723075,485.432692 262.204728,494.882252 262.204717,506.538879"
         id="path37770" />
      <path
         style="stroke:#FF0000;fill:none;stroke-linecap: round"
         d="M 262.204717,506.538879 C 262.204714,512.136595 264.444583,517.505042 268.431576,521.463224"
         id="path37772" />
      <path
         style="stroke:#FF0000;fill:none;stroke-linecap: round"
         d="M 268.431576,521.463224 C 272.418566,525.421410 277.826092,527.645094 283.464553,527.645094"
         id="path37774" />
      <path
         style="stroke:#FF0000;fill:none;stroke-linecap: round"
         d="M 162.992119,598.818639 C 168.630580,598.818639 174.038102,596.578766 178.025095,592.591769"
         id="path37776" />
      <path
         style="stroke:#FF0000;fill:none;stroke-linecap: round"
         d="M 178.025095,592.591769 C 182.012088,588.604773 184.251958,583.197247 184.251954,577.558782"
         id="path37778" />
      <path
         style="stroke:#FF0000;fill:none;stroke-linecap: round"
         d="M 184.251954,577.558782 C 184.251947,565.817304 174.733593,556.298957 162.992119,556.298957"
         id="path37780" />
      <path
         style="stroke:#FF0000;fill:none;stroke-linecap: round"
         d="M 162.992119,556.298957 C 151.250641,556.298957 141.732291,565.817304 141.732283,577.558782"
         id="path37782" />
      <path
         style="stroke:#FF0000;fill:none;stroke-linecap: round"
         d="M 141.732283,577.558782 C 141.732280,583.197247 143.972146,588.604773 147.959139,592.591769"
         id="path37784" />
      <path
         style="stroke:#FF0000;fill:none;stroke-linecap: round"
         d="M 147.959139,592.591769 C 151.946132,596.578766 157.353658,598.818639 162.992119,598.818639"
         id="path37786" />
      <path
         style="stroke:#FF0000;fill:none;stroke-linecap: round"
         d="M 403.936994,598.818639 C 409.575455,598.818639 414.982981,596.578766 418.969974,592.591769"
         id="path37788" />
      <path
         style="stroke:#FF0000;fill:none;stroke-linecap: round"
         d="M 418.969974,592.591769 C 422.956967,588.604773 425.196833,583.197247 425.196829,577.558782"
         id="path37790" />
      <path
         style="stroke:#FF0000;fill:none;stroke-linecap: round"
         d="M 425.196829,577.558782 C 425.196822,565.817304 415.678472,556.298957 403.936994,556.298957"
         id="path37792" />
      <path
         style="stroke:#FF0000;fill:none;stroke-linecap: round"
         d="M 403.936994,556.298957 C 392.195516,556.298957 382.677169,565.817304 382.677158,577.558782"
         id="path37794" />
      <path
         style="stroke:#FF0000;fill:none;stroke-linecap: round"
         d="M 382.677158,577.558782 C 382.677155,583.197247 384.917024,588.604773 388.904017,592.591769"
         id="path37796" />
      <path
         style="stroke:#FF0000;fill:none;stroke-linecap: round"
         d="M 388.904017,592.591769 C 392.891007,596.578766 398.298533,598.818639 403.936994,598.818639"
         id="path37798" />
      <path
         style="stroke:#FF0000;fill:none;stroke-linecap: round"
         d="M 524.717054,768.897680 C 524.717054,763.259219 526.940738,757.851693 530.898920,753.864700"
         id="path37800" />
      <path
         style="stroke:#FF0000;fill:none;stroke-linecap: round"
         d="M 530.898920,753.864700 C 534.857106,749.877707 540.225553,747.637841 545.823269,747.637845"
         id="path37802" />
      <path
         style="stroke:#FF0000;fill:none;stroke-linecap: round"
         d="M 545.823269,747.637845 C 557.479896,747.637852 566.929456,757.156202 566.929456,768.897680"
         id="path37804" />
      <path
         style="stroke:#FF0000;fill:none;stroke-linecap: round"
         d="M 566.929456,768.897680 C 566.929456,780.639158 557.479896,790.157505 545.823269,790.157516"
         id="path37806" />
      <path
         style="stroke:#FF0000;fill:none;stroke-linecap: round"
         d="M 545.823269,790.157516 C 540.225553,790.157519 534.857106,787.917650 530.898924,783.930657"
         id="path37808" />
      <path
         style="stroke:#FF0000;fill:none;stroke-linecap: round"
         d="M 530.898924,783.930657 C 526.940738,779.943667 524.717054,774.536141 524.717054,768.897680"
         id="path37810" />
      <path
         style="stroke:#FF0000;fill:none;stroke-linecap: round"
         d="M 453.543509,889.370121 C 453.543509,883.731660 455.783382,878.324134 459.770379,874.337141"
         id="path37812" />
      <path
         style="stroke:#FF0000;fill:none;stroke-linecap: round"
         d="M 459.770379,874.337141 C 463.757375,870.350148 469.164901,868.110282 474.803366,868.110286"
         id="path37814" />
      <path
         style="stroke:#FF0000;fill:none;stroke-linecap: round"
         d="M 474.803366,868.110286 C 486.544844,868.110293 496.063191,877.628643 496.063191,889.370121"
         id="path37816" />
      <path
         style="stroke:#FF0000;fill:none;stroke-linecap: round"
         d="M 496.063191,889.370121 C 496.063191,901.111599 486.544844,910.629946 474.803366,910.629957"
         id="path37818" />
      <path
         style="stroke:#FF0000;fill:none;stroke-linecap: round"
         d="M 474.803366,910.629957 C 469.164901,910.629960 463.757375,908.390091 459.770379,904.403098"
         id="path37820" />
      <path
         style="stroke:#FF0000;fill:none;stroke-linecap: round"
         d="M 459.770379,904.403098 C 455.783382,900.416108 453.543509,895.008582 453.543509,889.370121"
         id="path37822" />
      <path
         style="stroke:#FF0000;fill:none;stroke-linecap: round"
         d="M 453.543509,648.425239 C 453.543509,642.786778 455.783382,637.379252 459.770379,633.392259"
         id="path37824" />
      <path
         style="stroke:#FF0000;fill:none;stroke-linecap: round"
         d="M 459.770379,633.392259 C 463.757375,629.405267 469.164901,627.165400 474.803366,627.165404"
         id="path37826" />
      <path
         style="stroke:#FF0000;fill:none;stroke-linecap: round"
         d="M 474.803366,627.165404 C 486.544844,627.165411 496.063191,636.683761 496.063191,648.425239"
         id="path37828" />
      <path
         style="stroke:#FF0000;fill:none;stroke-linecap: round"
         d="M 496.063191,648.425239 C 496.063191,660.166717 486.544844,669.685064 474.803366,669.685075"
         id="path37830" />
      <path
         style="stroke:#FF0000;fill:none;stroke-linecap: round"
         d="M 474.803366,669.685075 C 469.164901,669.685078 463.757375,667.445209 459.770379,663.458216"
         id="path37832" />
      <path
         style="stroke:#FF0000;fill:none;stroke-linecap: round"
         d="M 459.770379,663.458216 C 455.783382,659.471226 453.543509,654.063700 453.543509,648.425239"
         id="path37834" />
      <path
         style="stroke:#FF0000;fill:none;stroke-linecap: round"
         d="M 42.212363,768.897680 C 42.212363,763.259219 39.988680,757.851693 36.030497,753.864700"
         id="path37836" />
      <path
         style="stroke:#FF0000;fill:none;stroke-linecap: round"
         d="M 36.030497,753.864700 C 32.072311,749.877707 26.703865,747.637841 21.106148,747.637845"
         id="path37838" />
      <path
         style="stroke:#FF0000;fill:none;stroke-linecap: round"
         d="M 21.106148,747.637845 C 9.449522,747.637852 -0.000039,757.156202 -0.000039,768.897680"
         id="path37840" />
      <path
         style="stroke:#FF0000;fill:none;stroke-linecap: round"
         d="M -0.000039,768.897680 C -0.000039,780.639158 9.449522,790.157505 21.106148,790.157516"
         id="path37842" />
      <path
         style="stroke:#FF0000;fill:none;stroke-linecap: round"
         d="M 21.106148,790.157516 C 26.703865,790.157519 32.072311,787.917650 36.030494,783.930657"
         id="path37844" />
      <path
         style="stroke:#FF0000;fill:none;stroke-linecap: round"
         d="M 36.030494,783.930657 C 39.988680,779.943667 42.212363,774.536141 42.212363,768.897680"
         id="path37846" />
      <path
         style="stroke:#FF0000;fill:none;stroke-linecap: round"
         d="M 113.385908,889.370121 C 113.385908,883.731660 111.146035,878.324134 107.159039,874.337141"
         id="path37848" />
      <path
         style="stroke:#FF0000;fill:none;stroke-linecap: round"
         d="M 107.159039,874.337141 C 103.172042,870.350148 97.764516,868.110282 92.126052,868.110286"
         id="path37850" />
      <path
         style="stroke:#FF0000;fill:none;stroke-linecap: round"
         d="M 92.126052,868.110286 C 80.384574,868.110293 70.866227,877.628643 70.866227,889.370121"
         id="path37852" />
      <path
         style="stroke:#FF0000;fill:none;stroke-linecap: round"
         d="M 70.866227,889.370121 C 70.866227,901.111599 80.384574,910.629946 92.126052,910.629957"
         id="path37854" />
      <path
         style="stroke:#FF0000;fill:none;stroke-linecap: round"
         d="M 92.126052,910.629957 C 97.764516,910.629960 103.172042,908.390091 107.159039,904.403098"
         id="path37856" />
      <path
         style="stroke:#FF0000;fill:none;stroke-linecap: round"
         d="M 107.159039,904.403098 C 111.146035,900.416108 113.385908,895.008582 113.385908,889.370121"
         id="path37858" />
      <path
         style="stroke:#FF0000;fill:none;stroke-linecap: round"
         d="M 113.385908,648.425239 C 113.385908,642.786778 111.146035,637.379252 107.159039,633.392259"
         id="path37860" />
      <path
         style="stroke:#FF0000;fill:none;stroke-linecap: round"
         d="M 107.159039,633.392259 C 103.172042,629.405267 97.764516,627.165400 92.126052,627.165404"
         id="path37862" />
      <path
         style="stroke:#FF0000;fill:none;stroke-linecap: round"
         d="M 92.126052,627.165404 C 80.384574,627.165411 70.866227,636.683761 70.866227,648.425239"
         id="path37864" />
      <path
         style="stroke:#FF0000;fill:none;stroke-linecap: round"
         d="M 70.866227,648.425239 C 70.866227,660.166717 80.384574,669.685064 92.126052,669.685075"
         id="path37866" />
      <path
         style="stroke:#FF0000;fill:none;stroke-linecap: round"
         d="M 92.126052,669.685075 C 97.764516,669.685078 103.172042,667.445209 107.159039,663.458216"
         id="path37868" />
      <path
         style="stroke:#FF0000;fill:none;stroke-linecap: round"
         d="M 107.159039,663.458216 C 111.146035,659.471226 113.385908,654.063700 113.385908,648.425239"
         id="path37870" />
    </symbol>
    <symbol
       id="boules" />
    <marker
       refY="0.0"
       refX="0.0"
       style="overflow:visible"
       id="DistanceX-3"
       orient="auto">
      <path
         style="stroke:#000000; stroke-width:0.5"
         d="M 3,-3 L -3,3 M 0,-5 L  0,5"
         id="path38598" />
    </marker>
    <pattern
       height="8"
       width="8"
       patternUnits="userSpaceOnUse"
       y="0"
       x="0"
       id="Hatch-1">
      <path
         linecap="square"
         stroke="#000000"
         stroke-width="0.25"
         d="M8 4 l-4,4"
         id="path38601" />
      <path
         linecap="square"
         stroke="#000000"
         stroke-width="0.25"
         d="M6 2 l-4,4"
         id="path38603" />
      <path
         linecap="square"
         stroke="#000000"
         stroke-width="0.25"
         d="M4 0 l-4,4"
         id="path38605" />
    </pattern>
    <symbol
       id="*Model_Space-6" />
    <symbol
       id="*Paper_Space-9" />
    <symbol
       id="logo_rust-6" />
    <symbol
       id="Cathar_cross-6">
      <path
         style="stroke:#FF0000;fill:none;stroke-linecap: round"
         d="M 257.574171,781.857751 C 261.980709,836.443361 233.986465,901.707194 199.134680,946.972488"
         id="path38611" />
      <path
         style="stroke:#FF0000;fill:none;stroke-linecap: round"
         d="M 199.134680,946.972488 C 232.480984,957.323480 260.273530,972.929509 283.549209,997.185543"
         id="path38613" />
      <path
         style="stroke:#FF0000;fill:none;stroke-linecap: round"
         d="M 283.549209,997.185543 C 308.453924,969.695405 338.207187,955.154523 367.420620,946.249285"
         id="path38615" />
      <path
         style="stroke:#FF0000;fill:none;stroke-linecap: round"
         d="M 367.420620,946.249285 C 328.754721,897.456529 308.206772,832.250693 309.354661,781.534063"
         id="path38617" />
      <path
         style="stroke:#FF0000;fill:none;stroke-linecap: round"
         d="M 257.574171,755.937128 C 261.980709,701.351518 233.986465,636.087685 199.134680,590.822391"
         id="path38619" />
      <path
         style="stroke:#FF0000;fill:none;stroke-linecap: round"
         d="M 199.134680,590.822391 C 232.480984,580.471398 260.273530,564.865370 283.549209,540.609335"
         id="path38621" />
      <path
         style="stroke:#FF0000;fill:none;stroke-linecap: round"
         d="M 283.549209,540.609335 C 308.453924,568.099474 338.207187,582.640356 367.420620,591.545594"
         id="path38623" />
      <path
         style="stroke:#FF0000;fill:none;stroke-linecap: round"
         d="M 367.420620,591.545594 C 328.754721,640.338350 308.206772,705.544186 309.354661,756.260816"
         id="path38625" />
      <path
         style="stroke:#FF0000;fill:none;stroke-linecap: round"
         d="M 296.425049,794.787987 C 351.010658,790.381446 416.274491,818.375698 461.539786,853.227468"
         id="path38627" />
      <path
         style="stroke:#FF0000;fill:none;stroke-linecap: round"
         d="M 461.539786,853.227468 C 471.890778,819.881150 487.496806,792.088611 511.752841,768.812939"
         id="path38629" />
      <path
         style="stroke:#FF0000;fill:none;stroke-linecap: round"
         d="M 511.752841,768.812939 C 484.262702,743.908224 469.721820,714.154961 460.816583,684.941528"
         id="path38631" />
      <path
         style="stroke:#FF0000;fill:none;stroke-linecap: round"
         d="M 460.816583,684.941528 C 412.023827,723.607427 346.817991,744.155376 296.101361,743.007487"
         id="path38633" />
      <path
         style="stroke:#FF0000;fill:none;stroke-linecap: round"
         d="M 270.504397,794.787987 C 215.918787,790.381446 150.654954,818.375698 105.389660,853.227468"
         id="path38635" />
      <path
         style="stroke:#FF0000;fill:none;stroke-linecap: round"
         d="M 105.389660,853.227468 C 95.038668,819.881150 79.432639,792.088611 55.176605,768.812939"
         id="path38637" />
      <path
         style="stroke:#FF0000;fill:none;stroke-linecap: round"
         d="M 55.176605,768.812939 C 82.666743,743.908224 97.207625,714.154961 106.112863,684.941528"
         id="path38639" />
      <path
         style="stroke:#FF0000;fill:none;stroke-linecap: round"
         d="M 106.112863,684.941528 C 154.905619,723.607427 220.111455,744.155376 270.828085,743.007487"
         id="path38641" />
      <path
         style="stroke:#FF0000;fill:none;stroke-linecap: round"
         d="M 283.464553,1010.149785 C 289.103014,1010.149785 294.510540,1012.373469 298.497533,1016.331651"
         id="path38643" />
      <path
         style="stroke:#FF0000;fill:none;stroke-linecap: round"
         d="M 298.497533,1016.331651 C 302.484526,1020.289837 304.724392,1025.658283 304.724388,1031.256000"
         id="path38645" />
      <path
         style="stroke:#FF0000;fill:none;stroke-linecap: round"
         d="M 304.724388,1031.256000 C 304.724381,1042.912626 295.206031,1052.362187 283.464553,1052.362187"
         id="path38647" />
      <path
         style="stroke:#FF0000;fill:none;stroke-linecap: round"
         d="M 283.464553,1052.362187 C 271.723075,1052.362187 262.204728,1042.912626 262.204717,1031.256000"
         id="path38649" />
      <path
         style="stroke:#FF0000;fill:none;stroke-linecap: round"
         d="M 262.204717,1031.256000 C 262.204714,1025.658283 264.444583,1020.289837 268.431576,1016.331654"
         id="path38651" />
      <path
         style="stroke:#FF0000;fill:none;stroke-linecap: round"
         d="M 268.431576,1016.331654 C 272.418566,1012.373469 277.826092,1010.149785 283.464553,1010.149785"
         id="path38653" />
      <path
         style="stroke:#FF0000;fill:none;stroke-linecap: round"
         d="M 162.992119,938.976240 C 168.630580,938.976240 174.038102,941.216113 178.025095,945.203109"
         id="path38655" />
      <path
         style="stroke:#FF0000;fill:none;stroke-linecap: round"
         d="M 178.025095,945.203109 C 182.012088,949.190106 184.251958,954.597632 184.251954,960.236096"
         id="path38657" />
      <path
         style="stroke:#FF0000;fill:none;stroke-linecap: round"
         d="M 184.251954,960.236096 C 184.251947,971.977574 174.733593,981.495921 162.992119,981.495921"
         id="path38659" />
      <path
         style="stroke:#FF0000;fill:none;stroke-linecap: round"
         d="M 162.992119,981.495921 C 151.250641,981.495921 141.732291,971.977574 141.732283,960.236096"
         id="path38661" />
      <path
         style="stroke:#FF0000;fill:none;stroke-linecap: round"
         d="M 141.732283,960.236096 C 141.732280,954.597632 143.972146,949.190106 147.959139,945.203109"
         id="path38663" />
      <path
         style="stroke:#FF0000;fill:none;stroke-linecap: round"
         d="M 147.959139,945.203109 C 151.946132,941.216113 157.353658,938.976240 162.992119,938.976240"
         id="path38665" />
      <path
         style="stroke:#FF0000;fill:none;stroke-linecap: round"
         d="M 403.936994,938.976240 C 409.575455,938.976240 414.982981,941.216113 418.969974,945.203109"
         id="path38667" />
      <path
         style="stroke:#FF0000;fill:none;stroke-linecap: round"
         d="M 418.969974,945.203109 C 422.956967,949.190106 425.196833,954.597632 425.196829,960.236096"
         id="path38669" />
      <path
         style="stroke:#FF0000;fill:none;stroke-linecap: round"
         d="M 425.196829,960.236096 C 425.196822,971.977574 415.678472,981.495921 403.936994,981.495921"
         id="path38671" />
      <path
         style="stroke:#FF0000;fill:none;stroke-linecap: round"
         d="M 403.936994,981.495921 C 392.195516,981.495921 382.677169,971.977574 382.677158,960.236096"
         id="path38673" />
      <path
         style="stroke:#FF0000;fill:none;stroke-linecap: round"
         d="M 382.677158,960.236096 C 382.677155,954.597632 384.917024,949.190106 388.904017,945.203109"
         id="path38675" />
      <path
         style="stroke:#FF0000;fill:none;stroke-linecap: round"
         d="M 388.904017,945.203109 C 392.891007,941.216113 398.298533,938.976240 403.936994,938.976240"
         id="path38677" />
      <path
         style="stroke:#FF0000;fill:none;stroke-linecap: round"
         d="M 283.464553,527.645094 C 289.103014,527.645094 294.510540,525.421410 298.497533,521.463228"
         id="path38679" />
      <path
         style="stroke:#FF0000;fill:none;stroke-linecap: round"
         d="M 298.497533,521.463228 C 302.484526,517.505042 304.724392,512.136595 304.724388,506.538879"
         id="path38681" />
      <path
         style="stroke:#FF0000;fill:none;stroke-linecap: round"
         d="M 304.724388,506.538879 C 304.724381,494.882252 295.206031,485.432692 283.464553,485.432692"
         id="path38683" />
      <path
         style="stroke:#FF0000;fill:none;stroke-linecap: round"
         d="M 283.464553,485.432692 C 271.723075,485.432692 262.204728,494.882252 262.204717,506.538879"
         id="path38685" />
      <path
         style="stroke:#FF0000;fill:none;stroke-linecap: round"
         d="M 262.204717,506.538879 C 262.204714,512.136595 264.444583,517.505042 268.431576,521.463224"
         id="path38687" />
      <path
         style="stroke:#FF0000;fill:none;stroke-linecap: round"
         d="M 268.431576,521.463224 C 272.418566,525.421410 277.826092,527.645094 283.464553,527.645094"
         id="path38689" />
      <path
         style="stroke:#FF0000;fill:none;stroke-linecap: round"
         d="M 162.992119,598.818639 C 168.630580,598.818639 174.038102,596.578766 178.025095,592.591769"
         id="path38691" />
      <path
         style="stroke:#FF0000;fill:none;stroke-linecap: round"
         d="M 178.025095,592.591769 C 182.012088,588.604773 184.251958,583.197247 184.251954,577.558782"
         id="path38693" />
      <path
         style="stroke:#FF0000;fill:none;stroke-linecap: round"
         d="M 184.251954,577.558782 C 184.251947,565.817304 174.733593,556.298957 162.992119,556.298957"
         id="path38695" />
      <path
         style="stroke:#FF0000;fill:none;stroke-linecap: round"
         d="M 162.992119,556.298957 C 151.250641,556.298957 141.732291,565.817304 141.732283,577.558782"
         id="path38697" />
      <path
         style="stroke:#FF0000;fill:none;stroke-linecap: round"
         d="M 141.732283,577.558782 C 141.732280,583.197247 143.972146,588.604773 147.959139,592.591769"
         id="path38699" />
      <path
         style="stroke:#FF0000;fill:none;stroke-linecap: round"
         d="M 147.959139,592.591769 C 151.946132,596.578766 157.353658,598.818639 162.992119,598.818639"
         id="path38701" />
      <path
         style="stroke:#FF0000;fill:none;stroke-linecap: round"
         d="M 403.936994,598.818639 C 409.575455,598.818639 414.982981,596.578766 418.969974,592.591769"
         id="path38703" />
      <path
         style="stroke:#FF0000;fill:none;stroke-linecap: round"
         d="M 418.969974,592.591769 C 422.956967,588.604773 425.196833,583.197247 425.196829,577.558782"
         id="path38705" />
      <path
         style="stroke:#FF0000;fill:none;stroke-linecap: round"
         d="M 425.196829,577.558782 C 425.196822,565.817304 415.678472,556.298957 403.936994,556.298957"
         id="path38707" />
      <path
         style="stroke:#FF0000;fill:none;stroke-linecap: round"
         d="M 403.936994,556.298957 C 392.195516,556.298957 382.677169,565.817304 382.677158,577.558782"
         id="path38709" />
      <path
         style="stroke:#FF0000;fill:none;stroke-linecap: round"
         d="M 382.677158,577.558782 C 382.677155,583.197247 384.917024,588.604773 388.904017,592.591769"
         id="path38711" />
      <path
         style="stroke:#FF0000;fill:none;stroke-linecap: round"
         d="M 388.904017,592.591769 C 392.891007,596.578766 398.298533,598.818639 403.936994,598.818639"
         id="path38713" />
      <path
         style="stroke:#FF0000;fill:none;stroke-linecap: round"
         d="M 524.717054,768.897680 C 524.717054,763.259219 526.940738,757.851693 530.898920,753.864700"
         id="path38715" />
      <path
         style="stroke:#FF0000;fill:none;stroke-linecap: round"
         d="M 530.898920,753.864700 C 534.857106,749.877707 540.225553,747.637841 545.823269,747.637845"
         id="path38717" />
      <path
         style="stroke:#FF0000;fill:none;stroke-linecap: round"
         d="M 545.823269,747.637845 C 557.479896,747.637852 566.929456,757.156202 566.929456,768.897680"
         id="path38719" />
      <path
         style="stroke:#FF0000;fill:none;stroke-linecap: round"
         d="M 566.929456,768.897680 C 566.929456,780.639158 557.479896,790.157505 545.823269,790.157516"
         id="path38721" />
      <path
         style="stroke:#FF0000;fill:none;stroke-linecap: round"
         d="M 545.823269,790.157516 C 540.225553,790.157519 534.857106,787.917650 530.898924,783.930657"
         id="path38723" />
      <path
         style="stroke:#FF0000;fill:none;stroke-linecap: round"
         d="M 530.898924,783.930657 C 526.940738,779.943667 524.717054,774.536141 524.717054,768.897680"
         id="path38725" />
      <path
         style="stroke:#FF0000;fill:none;stroke-linecap: round"
         d="M 453.543509,889.370121 C 453.543509,883.731660 455.783382,878.324134 459.770379,874.337141"
         id="path38727" />
      <path
         style="stroke:#FF0000;fill:none;stroke-linecap: round"
         d="M 459.770379,874.337141 C 463.757375,870.350148 469.164901,868.110282 474.803366,868.110286"
         id="path38729" />
      <path
         style="stroke:#FF0000;fill:none;stroke-linecap: round"
         d="M 474.803366,868.110286 C 486.544844,868.110293 496.063191,877.628643 496.063191,889.370121"
         id="path38731" />
      <path
         style="stroke:#FF0000;fill:none;stroke-linecap: round"
         d="M 496.063191,889.370121 C 496.063191,901.111599 486.544844,910.629946 474.803366,910.629957"
         id="path38733" />
      <path
         style="stroke:#FF0000;fill:none;stroke-linecap: round"
         d="M 474.803366,910.629957 C 469.164901,910.629960 463.757375,908.390091 459.770379,904.403098"
         id="path38735" />
      <path
         style="stroke:#FF0000;fill:none;stroke-linecap: round"
         d="M 459.770379,904.403098 C 455.783382,900.416108 453.543509,895.008582 453.543509,889.370121"
         id="path38737" />
      <path
         style="stroke:#FF0000;fill:none;stroke-linecap: round"
         d="M 453.543509,648.425239 C 453.543509,642.786778 455.783382,637.379252 459.770379,633.392259"
         id="path38739" />
      <path
         style="stroke:#FF0000;fill:none;stroke-linecap: round"
         d="M 459.770379,633.392259 C 463.757375,629.405267 469.164901,627.165400 474.803366,627.165404"
         id="path38741" />
      <path
         style="stroke:#FF0000;fill:none;stroke-linecap: round"
         d="M 474.803366,627.165404 C 486.544844,627.165411 496.063191,636.683761 496.063191,648.425239"
         id="path38743" />
      <path
         style="stroke:#FF0000;fill:none;stroke-linecap: round"
         d="M 496.063191,648.425239 C 496.063191,660.166717 486.544844,669.685064 474.803366,669.685075"
         id="path38745" />
      <path
         style="stroke:#FF0000;fill:none;stroke-linecap: round"
         d="M 474.803366,669.685075 C 469.164901,669.685078 463.757375,667.445209 459.770379,663.458216"
         id="path38747" />
      <path
         style="stroke:#FF0000;fill:none;stroke-linecap: round"
         d="M 459.770379,663.458216 C 455.783382,659.471226 453.543509,654.063700 453.543509,648.425239"
         id="path38749" />
      <path
         style="stroke:#FF0000;fill:none;stroke-linecap: round"
         d="M 42.212363,768.897680 C 42.212363,763.259219 39.988680,757.851693 36.030497,753.864700"
         id="path38751" />
      <path
         style="stroke:#FF0000;fill:none;stroke-linecap: round"
         d="M 36.030497,753.864700 C 32.072311,749.877707 26.703865,747.637841 21.106148,747.637845"
         id="path38753" />
      <path
         style="stroke:#FF0000;fill:none;stroke-linecap: round"
         d="M 21.106148,747.637845 C 9.449522,747.637852 -0.000039,757.156202 -0.000039,768.897680"
         id="path38755" />
      <path
         style="stroke:#FF0000;fill:none;stroke-linecap: round"
         d="M -0.000039,768.897680 C -0.000039,780.639158 9.449522,790.157505 21.106148,790.157516"
         id="path38757" />
      <path
         style="stroke:#FF0000;fill:none;stroke-linecap: round"
         d="M 21.106148,790.157516 C 26.703865,790.157519 32.072311,787.917650 36.030494,783.930657"
         id="path38759" />
      <path
         style="stroke:#FF0000;fill:none;stroke-linecap: round"
         d="M 36.030494,783.930657 C 39.988680,779.943667 42.212363,774.536141 42.212363,768.897680"
         id="path38761" />
      <path
         style="stroke:#FF0000;fill:none;stroke-linecap: round"
         d="M 113.385908,889.370121 C 113.385908,883.731660 111.146035,878.324134 107.159039,874.337141"
         id="path38763" />
      <path
         style="stroke:#FF0000;fill:none;stroke-linecap: round"
         d="M 107.159039,874.337141 C 103.172042,870.350148 97.764516,868.110282 92.126052,868.110286"
         id="path38765" />
      <path
         style="stroke:#FF0000;fill:none;stroke-linecap: round"
         d="M 92.126052,868.110286 C 80.384574,868.110293 70.866227,877.628643 70.866227,889.370121"
         id="path38767" />
      <path
         style="stroke:#FF0000;fill:none;stroke-linecap: round"
         d="M 70.866227,889.370121 C 70.866227,901.111599 80.384574,910.629946 92.126052,910.629957"
         id="path38769" />
      <path
         style="stroke:#FF0000;fill:none;stroke-linecap: round"
         d="M 92.126052,910.629957 C 97.764516,910.629960 103.172042,908.390091 107.159039,904.403098"
         id="path38771" />
      <path
         style="stroke:#FF0000;fill:none;stroke-linecap: round"
         d="M 107.159039,904.403098 C 111.146035,900.416108 113.385908,895.008582 113.385908,889.370121"
         id="path38773" />
      <path
         style="stroke:#FF0000;fill:none;stroke-linecap: round"
         d="M 113.385908,648.425239 C 113.385908,642.786778 111.146035,637.379252 107.159039,633.392259"
         id="path38775" />
      <path
         style="stroke:#FF0000;fill:none;stroke-linecap: round"
         d="M 107.159039,633.392259 C 103.172042,629.405267 97.764516,627.165400 92.126052,627.165404"
         id="path38777" />
      <path
         style="stroke:#FF0000;fill:none;stroke-linecap: round"
         d="M 92.126052,627.165404 C 80.384574,627.165411 70.866227,636.683761 70.866227,648.425239"
         id="path38779" />
      <path
         style="stroke:#FF0000;fill:none;stroke-linecap: round"
         d="M 70.866227,648.425239 C 70.866227,660.166717 80.384574,669.685064 92.126052,669.685075"
         id="path38781" />
      <path
         style="stroke:#FF0000;fill:none;stroke-linecap: round"
         d="M 92.126052,669.685075 C 97.764516,669.685078 103.172042,667.445209 107.159039,663.458216"
         id="path38783" />
      <path
         style="stroke:#FF0000;fill:none;stroke-linecap: round"
         d="M 107.159039,663.458216 C 111.146035,659.471226 113.385908,654.063700 113.385908,648.425239"
         id="path38785" />
    </symbol>
    <symbol
       id="boules-1" />
  </defs>
  <sodipodi:namedview
     inkscape:document-rotation="0"
     inkscape:window-maximized="1"
     inkscape:window-y="0"
     inkscape:window-x="0"
     inkscape:window-height="999"
     inkscape:window-width="1920"
     showgrid="false"
     inkscape:current-layer="layer2"
     inkscape:document-units="px"
     inkscape:cy="571.40332"
     inkscape:cx="459.91999"
     inkscape:zoom="1.4"
     inkscape:pageshadow="2"
     inkscape:pageopacity="0.0"
     borderopacity="1.0"
     bordercolor="#666666"
     pagecolor="#ffffff"
     id="base" />
  <metadata
     id="metadata36365">
    <rdf:RDF>
      <cc:Work
         rdf:about="">
        <dc:format>image/svg+xml</dc:format>
        <dc:type
           rdf:resource="http://purl.org/dc/dcmitype/StillImage" />
        <dc:title />
      </cc:Work>
    </rdf:RDF>
  </metadata>
  <g
     id="layer1"
     inkscape:groupmode="layer"
     inkscape:label="Layer 1">
    <path
       id="path38804"
       d="m 376.37103,662.24117 -7.61491,12.1864 a 4.429134,4.429134 0 0 1 -7.51224,0 l -7.61491,-12.1864 a 134.64567,134.64567 0 0 1 -3.65065,-0.3596 l -9.84605,10.4667 a 4.429134,4.429134 0 0 1 -7.36789,-1.4656 l -5.09115,-13.4379 a 134.64567,134.64567 0 0 1 -3.51036,-1.0648 l -11.6988,8.3447 a 4.429134,4.429134 0 0 1 -6.9404,-2.8748 l -2.37173,-14.1729 a 134.64567,134.64567 0 0 1 -3.23516,-1.7292 l -13.10198,5.902 a 4.429134,4.429134 0 0 1 -6.2462,-4.1736 l 0.43884,-14.3633 a 134.64567,134.64567 0 0 1 -2.83565,-2.3271 l -14.00165,3.2325 a 4.429134,4.429134 0 0 1 -5.31195,-5.3119 l 3.23253,-14.0017 a 134.64567,134.64567 0 0 1 -2.32715,-2.8356 l -14.36325,0.4388 a 4.429134,4.429134 0 0 1 -4.17358,-6.2462 l 5.90201,-13.102 a 134.64567,134.64567 0 0 1 -1.72923,-3.2351 l -14.17287,-2.3718 a 4.429134,4.429134 0 0 1 -2.87481,-6.9404 l 8.34467,-11.6988 a 134.64567,134.64567 0 0 1 -1.06485,-3.5103 l -13.43785,-5.0912 a 4.429134,4.429134 0 0 1 -1.46557,-7.3679 l 10.46666,-9.846 a 134.64567,134.64567 0 0 1 -0.35956,-3.6507 l -12.18641,-7.6149 a 4.429134,4.429134 0 0 1 0,-7.5122 l 12.18641,-7.6149 a 134.64567,134.64567 0 0 1 0.35956,-3.6507 l -10.46666,-9.846 a 4.429134,4.429134 0 0 1 1.46557,-7.3679 l 13.43785,-5.0912 a 134.64567,134.64567 0 0 1 1.06485,-3.5103 l -8.34467,-11.69883 a 4.429134,4.429134 0 0 1 2.87481,-6.9404 l 14.17287,-2.37172 a 134.64567,134.64567 0 0 1 1.72923,-3.23517 l -5.90201,-13.10198 a 4.429134,4.429134 0 0 1 4.17358,-6.24619 l 14.36325,0.43883 a 134.64567,134.64567 0 0 1 2.32715,-2.83564 l -3.23253,-14.00165 a 4.429134,4.429134 0 0 1 5.31195,-5.31196 l 14.00166,3.23254 a 134.64567,134.64567 0 0 1 2.83564,-2.32716 l -0.43884,-14.36325 a 4.429134,4.429134 0 0 1 6.2462,-4.17357 l 13.10198,5.90201 a 134.64567,134.64567 0 0 1 3.23516,-1.72923 l 2.37173,-14.17288 a 4.429134,4.429134 0 0 1 6.9404,-2.87481 l 11.6988,8.34468 a 134.64567,134.64567 0 0 1 3.51036,-1.06486 l 5.09115,-13.43785 a 4.429134,4.429134 0 0 1 7.36789,-1.46556 l 9.84605,10.46665 a 134.64567,134.64567 0 0 1 3.65065,-0.35956 l 7.61491,-12.18641 a 4.429134,4.429134 0 0 1 7.51224,0 l 7.61491,12.18641 a 134.64567,134.64567 0 0 1 3.65065,0.35956 l 9.84605,-10.46665 a 4.429134,4.429134 0 0 1 7.36789,1.46556 l 5.09115,13.43785 a 134.64567,134.64567 0 0 1 3.51036,1.06486 l 11.6988,-8.34468 a 4.429134,4.429134 0 0 1 6.9404,2.87481 l 2.37173,14.17288 a 134.64567,134.64567 0 0 1 3.23516,1.72923 l 13.10198,-5.90201 a 4.429134,4.429134 0 0 1 6.2462,4.17357 l -0.43884,14.36325 a 134.64567,134.64567 0 0 1 2.83565,2.32716 l 14.00165,-3.23254 a 4.429134,4.429134 0 0 1 5.31195,5.31196 l -3.23253,14.00165 a 134.64567,134.64567 0 0 1 2.32715,2.83564 l 14.36325,-0.43883 a 4.429134,4.429134 0 0 1 4.17358,6.24619 l -5.90201,13.10198 a 134.64567,134.64567 0 0 1 1.72923,3.23517 l 14.17287,2.37172 a 4.429134,4.429134 0 0 1 2.87481,6.9404 l -8.34467,11.69883 a 134.64567,134.64567 0 0 1 1.06485,3.5103 l 13.43785,5.0912 a 4.429134,4.429134 0 0 1 1.46557,7.3679 l -10.46666,9.846 a 134.64567,134.64567 0 0 1 0.35956,3.6507 l 12.18641,7.6149 a 4.429134,4.429134 0 0 1 0,7.5122 l -12.18641,7.6149 a 134.64567,134.64567 0 0 1 -0.35956,3.6507 l 10.46666,9.846 a 4.429134,4.429134 0 0 1 -1.46557,7.3679 l -13.43785,5.0912 a 134.64567,134.64567 0 0 1 -1.06485,3.5103 l 8.34467,11.6988 a 4.429134,4.429134 0 0 1 -2.87481,6.9404 l -14.17287,2.3718 a 134.64567,134.64567 0 0 1 -1.72923,3.2351 l 5.90201,13.102 a 4.429134,4.429134 0 0 1 -4.17358,6.2462 l -14.36325,-0.4388 a 134.64567,134.64567 0 0 1 -2.32715,2.8356 l 3.23253,14.0017 a 4.429134,4.429134 0 0 1 -5.31195,5.3119 l -14.00166,-3.2325 a 134.64567,134.64567 0 0 1 -2.83564,2.3271 l 0.43884,14.3633 a 4.429134,4.429134 0 0 1 -6.2462,4.1736 l -13.10198,-5.902 a 134.64567,134.64567 0 0 1 -3.23516,1.7292 l -2.37173,14.1729 a 4.429134,4.429134 0 0 1 -6.9404,2.8748 l -11.6988,-8.3447 a 134.64567,134.64567 0 0 1 -3.51036,1.0648 l -5.09115,13.4379 a 4.429134,4.429134 0 0 1 -7.36789,1.4656 l -9.84605,-10.4667 a 134.64567,134.64567 0 0 1 -3.65065,0.3596 z"
       style="fill:#000000;stroke:none;stroke-linecap:round;fill-opacity:1"
       inkscape:connector-curvature="0" />
    <use
       transform="translate(365,-524.28573)"
       id="use38790"
       xlink:href="#logo_rust-6"
       x="1133.8583"
       y="-814.96063"
       width="100%"
       height="100%" />
    <path
       id="path38792"
       d="m 373.85827,414.69065 a 8.858268,8.858268 0 1 0 -17.71654,0 8.858268,8.858268 0 0 0 17.71654,0 z"
       style="fill:#ffffff;stroke:none;stroke-linecap:round;fill-opacity:1"
       inkscape:connector-curvature="0" />
    <path
       id="path38794"
       d="m 266.02194,493.03837 a 8.858269,8.858269 0 1 0 -17.71654,0 8.858269,8.858269 0 0 0 17.71654,0 z"
       style="fill:#ffffff;stroke:none;stroke-linecap:round;fill-opacity:1"
       inkscape:connector-curvature="0" />
    <path
       id="path38796"
       d="m 307.21175,619.80757 a 8.858268,8.858268 0 1 0 -17.71653,0 8.858268,8.858268 0 0 0 17.71653,0 z"
       style="fill:#ffffff;stroke:none;stroke-linecap:round;fill-opacity:1"
       inkscape:connector-curvature="0" />
    <path
       id="path38798"
       d="m 440.50478,619.80757 a 8.858268,8.858268 0 1 0 -17.71653,0 8.858268,8.858268 0 0 0 17.71653,0 z"
       style="fill:#ffffff;stroke:none;stroke-linecap:round;fill-opacity:1"
       inkscape:connector-curvature="0" />
    <path
       id="path38800"
       d="m 481.6946,493.03837 a 8.858269,8.858269 0 1 0 -17.71654,0 8.858269,8.858269 0 0 0 17.71654,0 z"
       style="fill:#ffffff;stroke:none;stroke-linecap:round;fill-opacity:1"
       inkscape:connector-curvature="0" />
    <path
       id="path38802"
       d="m 412.08099,631.22557 3.73944,-23.6099 a 7.972441,7.972441 0 0 1 9.12145,-6.6271 l 23.60987,3.7394 a 113.38583,113.38583 0 0 0 29.09765,-89.5534 l -21.29877,-10.8522 a 7.972441,7.972441 0 0 1 -3.48409,-10.7229 l 10.85227,-21.29882 a 113.38583,113.38583 0 0 0 -76.17864,-55.34702 l -16.9028,16.9028 a 7.972441,7.972441 0 0 1 -11.27474,0 l -16.9028,-16.9028 a 113.38583,113.38583 0 0 0 -76.17864,55.34702 l 10.85227,21.29882 a 7.972441,7.972441 0 0 1 -3.48409,10.7229 l -21.29877,10.8522 a 113.38583,113.38583 0 0 0 29.09765,89.5534 l 23.60987,-3.7394 a 7.972441,7.972441 0 0 1 9.12145,6.6271 l 3.73944,23.6099 a 113.38583,113.38583 0 0 0 94.16198,0 z"
       style="fill:#ffffff;stroke:none;stroke-linecap:round;fill-opacity:1"
       inkscape:connector-curvature="0" />
    <rect
       y="484.34488"
       x="283.92859"
       height="135.46268"
       width="156.57617"
       id="rect225"
       style="fill:#000000;stroke-width:1.74292" />
    <ellipse
       ry="23.772322"
       rx="27.455359"
       cy="345.2009"
       cx="125.22321"
       id="path229"
       style="fill:none;stroke-width:0.9375" />
    <ellipse
       ry="62.570854"
       rx="69.438118"
       cy="484.98984"
       cx="362.8974"
       id="path233"
       style="fill:#000000;stroke-width:1.85548" />
    <ellipse
       style="fill:#f9f9f9;stroke-width:1.34192"
       id="path233-3"
       cx="363.57819"
       cy="483.05475"
       rx="51.057442"
       ry="44.509163" />
  </g>
  <g
     inkscape:label="Layer 2"
     id="layer2"
     inkscape:groupmode="layer">
    <text
       transform="scale(0.93412791,1.0705172)"
       id="text223"
       y="591.27423"
       x="196.45085"
       style="font-style:normal;font-weight:normal;font-size:158.62px;line-height:1.25;font-family:sans-serif;fill:#800000;fill-opacity:1;stroke:none;stroke-width:3.9655"
       xml:space="preserve"><tspan
         style="font-style:normal;font-variant:normal;font-weight:bold;font-stretch:normal;font-family:sans-serif;-inkscape-font-specification:'sans-serif Bold';fill:#800000;stroke-width:3.9655"
         y="591.27423"
         x="196.45085"
         id="tspan221"
         sodipodi:role="line">Titso</tspan></text>
  </g>
</svg>
